<svg id="svg" version="1.1" xmlns="http://www.w3.org/2000/svg" xmlns:xlink="http://www.w3.org/1999/xlink" width="400" height="400" viewBox="0, 0, 400,400"><g id="svgg"><path id="path0" d="M0.000 200.000 L 0.000 400.000 200.000 400.000 L 400.000 400.000 400.000 200.000 L 400.000 0.000 200.000 0.000 L 0.000 0.000 0.000 200.000 M121.100 164.400 C 124.137 166.023,124.010 164.906,124.133 191.199 C 124.251 216.408,124.279 216.019,122.185 217.781 L 121.034 218.750 88.154 218.744 C 52.307 218.738,54.079 218.853,52.442 216.423 L 51.539 215.085 51.649 191.624 C 51.773 164.955,51.666 165.860,54.853 164.412 C 57.333 163.286,118.995 163.274,121.100 164.400 M57.109 169.219 C 56.756 169.572,56.641 175.052,56.641 191.484 L 56.641 213.281 87.891 213.281 L 119.141 213.281 119.141 191.484 C 119.141 175.052,119.025 169.572,118.672 169.219 C 117.993 168.540,57.788 168.540,57.109 169.219 M171.484 194.922 L 171.484 219.141 167.188 219.141 L 162.891 219.141 162.891 217.108 L 162.891 215.076 161.426 216.481 C 154.687 222.945,142.965 219.958,138.558 210.654 C 136.312 205.913,136.584 197.437,139.142 192.423 C 143.178 184.511,154.132 181.981,161.153 187.340 L 162.891 188.667 162.891 179.685 L 162.891 170.703 167.188 170.703 L 171.484 170.703 171.484 194.922 M256.941 179.778 L 257.046 188.658 258.454 187.099 C 262.193 182.960,272.102 183.555,276.157 188.162 C 278.932 191.314,279.038 191.951,279.205 206.361 L 279.354 219.167 274.980 219.056 L 270.607 218.945 270.477 207.880 C 270.310 193.568,269.821 192.373,264.130 192.391 C 257.820 192.410,257.259 193.651,257.107 207.910 L 256.987 219.141 252.517 219.141 L 248.047 219.141 248.047 195.182 C 248.047 182.005,248.170 171.101,248.320 170.951 C 248.470 170.801,250.447 170.728,252.714 170.788 L 256.836 170.898 256.941 179.778 M331.641 179.490 L 331.641 188.276 333.381 186.947 C 337.043 184.152,343.771 183.588,348.329 185.693 C 360.944 191.520,360.491 213.805,347.656 218.824 C 343.030 220.633,336.581 219.793,333.258 216.949 L 331.641 215.564 331.641 217.352 L 331.641 219.141 327.344 219.141 L 323.047 219.141 323.047 194.922 L 323.047 170.703 327.344 170.703 L 331.641 170.703 331.641 179.490 M91.797 177.318 L 91.797 179.635 94.379 181.006 L 96.961 182.377 98.473 181.423 C 100.614 180.071,100.787 180.151,102.637 183.345 C 104.663 186.844,104.689 186.456,102.344 187.733 L 100.391 188.796 100.391 191.602 L 100.391 194.407 102.344 195.470 C 103.418 196.055,104.297 196.702,104.297 196.909 C 104.297 197.255,101.414 202.108,100.755 202.871 C 100.597 203.054,99.692 202.749,98.744 202.193 L 97.020 201.183 94.213 202.583 L 91.406 203.983 91.406 206.093 L 91.406 208.203 87.695 208.203 L 83.984 208.203 83.957 205.957 L 83.931 203.711 81.388 202.456 L 78.845 201.201 77.277 202.191 C 75.269 203.458,75.067 203.355,73.114 200.067 C 71.123 196.716,71.094 197.108,73.438 195.666 L 75.391 194.464 75.391 191.602 L 75.391 188.739 73.419 187.526 C 72.135 186.736,71.547 186.145,71.731 185.832 C 75.100 180.114,75.216 180.026,77.481 181.417 L 78.985 182.342 81.673 180.917 L 84.362 179.492 84.368 177.246 L 84.375 175.000 88.086 175.000 L 91.797 175.000 91.797 177.318 M197.414 184.965 C 204.550 186.824,208.512 192.182,208.892 200.488 L 209.085 204.688 196.876 204.688 L 184.668 204.688 184.916 205.957 C 186.190 212.488,195.365 214.640,200.967 209.722 L 202.335 208.520 204.976 210.792 C 206.429 212.041,207.705 213.129,207.813 213.210 C 208.277 213.562,203.887 217.020,201.631 218.081 C 190.510 223.306,178.194 216.989,176.481 205.182 C 174.534 191.754,184.930 181.714,197.414 184.965 M222.847 196.191 C 224.955 202.261,226.874 207.606,227.110 208.070 C 227.479 208.795,228.113 207.244,231.625 197.035 L 235.710 185.156 240.316 185.156 C 242.849 185.156,244.922 185.245,244.922 185.352 C 244.922 185.460,242.532 191.744,239.610 199.317 C 236.688 206.890,233.773 214.448,233.130 216.113 L 231.963 219.141 227.337 219.141 L 222.710 219.141 219.121 210.059 C 214.320 197.911,209.766 185.965,209.766 185.518 C 209.766 185.316,211.810 185.156,214.390 185.156 L 219.013 185.156 222.847 196.191 M294.141 195.293 C 294.141 209.252,294.760 211.237,299.328 211.922 C 306.316 212.970,307.792 210.162,307.804 195.801 L 307.813 185.156 312.305 185.156 L 316.797 185.156 316.797 202.148 L 316.797 219.141 312.305 219.141 L 307.813 219.141 307.813 217.510 L 307.813 215.879 306.932 216.706 C 301.131 222.157,290.667 220.464,287.109 213.500 L 285.742 210.824 285.625 197.990 L 285.507 185.156 289.824 185.156 L 294.141 185.156 294.141 195.293 M85.332 186.096 C 81.526 187.754,80.461 193.039,83.351 195.929 C 86.821 199.399,92.381 198.082,93.765 193.462 C 95.260 188.472,90.142 184.001,85.332 186.096 M190.291 191.824 C 187.992 192.745,185.156 196.174,185.156 198.034 C 185.156 198.298,187.853 198.438,192.969 198.438 C 197.266 198.438,200.781 198.376,200.781 198.300 C 200.781 193.975,194.540 190.122,190.291 191.824 M151.175 192.810 C 145.047 195.467,144.067 206.730,149.642 210.420 C 157.095 215.352,165.097 207.658,162.503 198.054 C 161.293 193.573,155.548 190.913,151.175 192.810 M336.523 192.930 C 330.318 195.812,329.440 206.430,335.083 210.343 C 340.316 213.971,347.344 210.880,348.472 204.455 C 349.938 196.106,343.356 189.757,336.523 192.930 M78.125 223.065 C 78.125 225.034,79.659 225.391,88.141 225.391 C 96.687 225.391,98.047 225.086,98.047 223.174 C 98.047 222.752,101.023 222.656,114.063 222.656 L 130.078 222.656 130.078 224.433 C 130.078 227.732,128.010 230.113,124.513 230.839 C 120.133 231.748,51.252 231.198,49.414 230.239 C 47.153 229.060,46.094 227.308,46.094 224.747 L 46.094 222.656 62.109 222.656 C 72.990 222.656,78.125 222.787,78.125 223.065 " fill="none"></path><path id="path1" d="M162.891 180.124 L 162.891 189.153 161.379 187.788 C 156.337 183.232,146.517 183.792,141.806 188.903 C 136.954 194.166,135.567 204.141,138.782 210.647 C 143.383 219.956,154.868 222.800,161.621 216.303 L 162.891 215.081 162.891 216.916 L 162.891 218.750 167.188 218.750 L 171.484 218.750 171.484 194.922 L 171.484 171.094 167.188 171.094 L 162.891 171.094 162.891 180.124 M248.438 194.922 L 248.438 218.750 252.539 218.750 L 256.641 218.750 256.650 209.082 C 256.665 194.391,257.901 191.829,264.764 192.266 C 269.995 192.599,270.698 194.520,270.701 208.496 L 270.703 218.750 275.047 218.750 L 279.391 218.750 279.197 206.543 C 278.984 193.175,278.782 191.797,276.590 188.772 C 272.916 183.700,262.674 182.926,258.334 187.392 L 256.641 189.134 256.641 180.114 L 256.641 171.094 252.539 171.094 L 248.438 171.094 248.438 194.922 M323.047 194.922 L 323.047 218.750 327.344 218.750 L 331.641 218.750 331.641 216.979 L 331.641 215.208 332.984 216.551 C 337.492 221.059,347.473 220.486,352.406 215.437 C 360.475 207.177,358.451 190.559,348.828 186.069 C 343.407 183.539,336.416 184.197,332.941 187.564 L 331.641 188.825 331.641 179.959 L 331.641 171.094 327.344 171.094 L 323.047 171.094 323.047 194.922 M189.758 184.757 C 174.188 187.552,171.330 211.090,185.727 217.961 C 192.165 221.034,200.766 219.778,206.198 214.971 L 207.904 213.462 204.986 211.048 L 202.067 208.634 200.766 209.976 C 197.204 213.652,190.358 213.526,186.921 209.722 C 185.586 208.244,185.235 207.617,184.598 205.572 L 184.326 204.699 196.557 204.595 L 208.789 204.492 208.726 200.586 C 208.553 189.768,200.284 182.868,189.758 184.757 M209.766 185.279 C 209.766 185.549,215.737 201.122,219.118 209.668 L 222.710 218.750 227.334 218.750 L 231.958 218.750 234.128 213.184 C 235.321 210.122,238.224 202.607,240.578 196.484 L 244.859 185.352 240.529 185.241 C 238.147 185.179,236.076 185.267,235.927 185.436 C 235.777 185.604,233.829 191.049,231.597 197.536 C 229.365 204.022,227.433 209.208,227.304 209.059 C 227.038 208.755,219.723 187.813,219.317 186.197 L 219.056 185.156 214.411 185.156 C 211.856 185.156,209.766 185.212,209.766 185.279 M285.639 197.754 C 285.808 212.083,285.908 212.642,288.892 215.960 C 293.070 220.608,301.086 221.063,306.465 216.957 L 308.203 215.630 308.203 217.165 L 308.203 218.700 312.306 218.823 L 316.408 218.945 316.407 202.051 L 316.406 185.156 312.207 185.157 L 308.008 185.158 308.008 195.997 L 308.008 206.836 307.031 208.566 C 304.443 213.153,297.245 213.412,295.020 208.999 C 294.170 207.314,294.141 206.889,294.141 196.206 L 294.141 185.156 289.815 185.156 L 285.489 185.156 285.639 197.754 M196.406 191.957 C 198.506 193.054,200.781 196.316,200.781 198.230 C 200.781 198.893,185.410 199.165,185.005 198.508 C 184.695 198.007,186.513 194.427,187.546 193.505 C 189.850 191.446,194.030 190.716,196.406 191.957 M159.549 193.658 C 164.085 196.825,164.381 206.254,160.059 209.953 C 155.268 214.054,148.062 211.820,146.277 205.681 C 143.537 196.255,152.126 188.474,159.549 193.658 M343.464 192.761 C 347.525 194.458,349.644 199.623,348.489 205.010 C 346.343 215.014,332.337 214.020,331.382 203.796 C 330.601 195.428,336.642 189.910,343.464 192.761 " fill="#f5f7f9" fill-rule="evenodd"></path><path id="path2" d="M54.371 164.854 C 51.914 166.352,51.953 165.919,51.953 191.804 C 51.953 217.163,51.925 216.804,54.030 217.930 C 54.564 218.216,55.238 218.356,55.528 218.240 C 55.834 218.118,55.702 218.018,55.211 218.000 C 54.746 217.983,53.906 217.422,53.344 216.753 L 52.321 215.538 52.430 191.586 C 52.538 167.964,52.550 167.620,53.358 166.532 C 54.948 164.392,53.939 164.458,83.594 164.552 L 111.133 164.640 84.180 164.844 C 69.355 164.956,57.402 165.105,57.617 165.176 C 57.832 165.246,59.019 165.312,60.254 165.322 C 61.489 165.331,62.500 165.471,62.500 165.632 C 62.500 166.059,60.996 166.384,60.859 165.987 C 60.795 165.802,60.479 165.817,60.156 166.022 C 59.647 166.345,59.654 166.395,60.208 166.400 C 62.171 166.419,61.167 167.885,59.073 168.059 C 55.677 168.341,55.847 167.379,55.946 185.719 L 56.034 201.758 56.239 185.664 C 56.374 175.155,56.588 169.426,56.858 169.157 C 57.142 168.874,66.871 168.776,88.108 168.845 L 118.945 168.945 119.046 191.111 L 119.147 213.277 87.796 213.379 L 56.445 213.481 87.793 213.577 C 112.556 213.652,119.142 213.774,119.147 214.160 C 119.151 214.486,119.279 214.453,119.531 214.063 C 119.740 213.740,119.913 212.554,119.916 211.426 C 119.919 210.298,120.087 209.375,120.289 209.375 C 120.855 209.375,121.156 210.072,120.709 210.348 C 119.979 210.799,120.229 212.838,120.996 212.691 C 121.372 212.619,121.799 212.546,121.944 212.530 C 122.089 212.513,122.302 212.192,122.416 211.816 C 122.530 211.440,122.574 211.704,122.512 212.402 C 122.451 213.101,122.542 213.672,122.715 213.672 C 122.887 213.672,123.081 210.640,123.145 206.934 L 123.262 200.195 123.350 207.488 C 123.439 214.866,123.276 216.567,122.576 215.560 C 122.327 215.201,122.289 215.306,122.455 215.896 C 123.039 217.982,123.603 217.943,88.842 218.204 C 71.239 218.337,56.763 218.513,56.673 218.597 C 56.127 219.109,120.041 218.711,121.276 218.195 C 123.936 217.083,123.857 217.954,123.739 190.988 L 123.633 166.737 122.174 165.400 L 120.715 164.063 88.189 164.064 C 56.255 164.065,55.641 164.080,54.371 164.854 M123.339 184.059 C 123.272 186.918,123.217 184.688,123.217 179.102 C 123.217 173.516,123.272 171.176,123.339 173.903 C 123.406 176.629,123.406 181.200,123.339 184.059 M84.375 177.513 L 84.375 179.635 81.738 181.054 L 79.102 182.472 77.201 181.423 C 75.652 180.567,75.235 180.472,74.946 180.909 C 71.434 186.227,71.421 186.292,73.633 187.500 L 75.391 188.460 75.391 191.477 L 75.391 194.494 73.633 195.703 C 72.666 196.368,71.875 197.105,71.875 197.340 C 71.875 197.666,74.598 202.327,75.218 203.062 C 75.279 203.134,76.134 202.722,77.117 202.146 L 78.905 201.099 81.542 202.432 L 84.180 203.765 84.297 205.984 L 84.414 208.203 87.910 208.203 L 91.406 208.203 91.414 205.957 L 91.422 203.711 94.239 202.387 L 97.055 201.063 98.507 201.899 C 100.483 203.036,100.542 203.015,101.975 200.684 C 102.669 199.556,103.490 198.245,103.800 197.771 C 104.338 196.950,104.271 196.852,102.377 195.687 L 100.391 194.464 100.391 191.585 L 100.391 188.705 102.148 187.675 C 104.287 186.421,104.287 186.428,102.326 183.128 C 100.500 180.055,100.804 180.194,98.659 181.450 L 96.984 182.432 94.391 181.218 L 91.797 180.004 91.797 177.698 L 91.797 175.391 88.086 175.391 L 84.375 175.391 84.375 177.513 M90.796 186.148 C 93.857 187.600,95.154 192.165,93.287 194.913 C 89.523 200.452,81.641 198.224,81.641 191.621 C 81.641 186.940,86.431 184.076,90.796 186.148 M307.982 195.117 C 307.982 200.488,308.037 202.740,308.104 200.120 C 308.172 197.501,308.172 193.107,308.105 190.355 C 308.037 187.603,307.982 189.746,307.982 195.117 M123.337 197.346 C 123.263 198.913,123.202 197.734,123.201 194.727 C 123.200 191.719,123.261 190.437,123.336 191.877 C 123.411 193.318,123.412 195.779,123.337 197.346 M73.828 197.266 C 73.511 197.461,73.574 197.625,74.035 197.802 C 74.584 198.013,74.612 198.159,74.197 198.659 C 73.789 199.151,73.790 199.241,74.201 199.143 C 74.480 199.077,74.796 199.268,74.904 199.566 C 75.025 199.898,74.930 200.003,74.660 199.836 C 74.417 199.686,74.219 199.749,74.219 199.977 C 74.219 200.204,74.383 200.391,74.583 200.391 C 74.783 200.391,75.063 200.755,75.204 201.200 C 75.364 201.703,75.678 201.927,76.032 201.791 C 76.352 201.668,76.498 201.741,76.364 201.958 C 75.897 202.714,75.362 202.315,74.006 200.194 C 72.690 198.137,71.617 195.881,72.613 197.266 C 72.979 197.774,73.036 197.762,73.041 197.180 C 73.045 196.729,73.250 196.587,73.666 196.746 C 74.102 196.914,74.150 197.067,73.828 197.266 M189.160 198.729 C 191.255 198.799,194.683 198.799,196.777 198.729 C 198.872 198.658,197.158 198.601,192.969 198.601 C 188.779 198.601,187.065 198.658,189.160 198.729 M55.950 204.297 C 55.950 205.049,56.030 205.356,56.129 204.980 C 56.227 204.604,56.227 203.989,56.129 203.613 C 56.030 203.237,55.950 203.545,55.950 204.297 M85.046 206.538 C 84.956 207.131,84.880 206.738,84.877 205.664 C 84.874 204.590,84.948 204.104,85.041 204.584 C 85.133 205.065,85.136 205.944,85.046 206.538 M87.402 207.301 C 87.026 207.399,86.411 207.399,86.035 207.301 C 85.659 207.202,85.967 207.122,86.719 207.122 C 87.471 207.122,87.778 207.202,87.402 207.301 M248.303 218.848 C 248.402 219.009,250.309 219.141,252.539 219.141 C 254.770 219.141,256.676 219.009,256.776 218.848 C 256.875 218.687,254.969 218.555,252.539 218.555 C 250.109 218.555,248.203 218.687,248.303 218.848 M276.270 219.030 C 276.860 219.119,277.827 219.119,278.418 219.030 C 279.009 218.940,278.525 218.867,277.344 218.867 C 276.162 218.867,275.679 218.940,276.270 219.030 M314.160 219.019 C 314.536 219.118,315.151 219.118,315.527 219.019 C 315.903 218.921,315.596 218.841,314.844 218.841 C 314.092 218.841,313.784 218.921,314.160 219.019 M326.855 219.036 C 327.769 219.118,329.263 219.118,330.176 219.036 C 331.089 218.954,330.342 218.886,328.516 218.886 C 326.689 218.886,325.942 218.954,326.855 219.036 M46.205 224.414 C 46.208 225.488,46.284 225.881,46.374 225.288 C 46.464 224.694,46.461 223.815,46.369 223.334 C 46.276 222.854,46.203 223.340,46.205 224.414 M98.245 223.427 C 98.111 223.851,97.548 224.555,96.995 224.990 C 96.441 225.425,96.172 225.781,96.397 225.781 C 96.869 225.781,98.828 223.554,98.828 223.017 C 98.828 222.393,98.500 222.624,98.245 223.427 M129.794 224.219 C 129.794 225.186,129.870 225.581,129.963 225.098 C 130.056 224.614,130.056 223.823,129.963 223.340 C 129.870 222.856,129.794 223.252,129.794 224.219 M84.884 226.073 C 86.989 226.143,90.329 226.143,92.305 226.072 C 94.282 226.001,92.559 225.944,88.477 225.944 C 84.395 225.944,82.778 226.002,84.884 226.073 M128.736 227.686 C 128.416 228.305,127.402 229.182,126.480 229.639 C 125.558 230.095,125.048 230.468,125.345 230.468 C 126.321 230.469,128.523 228.853,129.121 227.697 C 129.444 227.073,129.620 226.563,129.512 226.563 C 129.405 226.563,129.055 227.068,128.736 227.686 M69.434 230.762 C 79.585 230.820,96.196 230.820,106.348 230.762 C 116.499 230.704,108.193 230.656,87.891 230.656 C 67.588 230.656,59.282 230.704,69.434 230.762 " fill="#406287" fill-rule="evenodd"></path></g></svg>